<?xml version="1.0" standalone="yes"?>
<svg xmlns="http://www.w3.org/2000/svg" width="320" height="320">
<path style="fill:#ffffff; stroke:none;" d="M86 0.44278C74.4574 2.02722 63.5461 4.87451 53 9.91293C-12.4663 41.1898 0 118.418 0 178C0 213.232 -4.00881 249.733 17.7674 280C53.0866 329.09 113.023 320 166 320C188.406 320 212.843 322.742 235 319.405C246.538 317.668 257.513 314.868 268 309.601C332.081 277.416 320 202.443 320 143C320 106.225 324.026 69.328 300.828 38C265.848 -9.24026 205.515 0 154 0C131.86 0 107.932 -2.56784 86 0.44278z"/>
<path style="fill:#ff0000; stroke:none;" d="M220 78C211.32 78 202.88 77.8192 196.129 84.2348C185.386 94.4453 187.563 126.421 197.235 136.929C207.24 147.799 226.617 144.104 240 143.997C246.89 143.941 255.316 143.347 260.622 138.414C271.331 128.458 272.073 93.9217 262.549 83.1532C255.431 75.1057 240.64 78 231 78C230.997 73.5739 230.792 69.3615 230 65C235.145 65 257.958 68.039 257.958 60.0824C257.958 53.1408 234.733 55 230 55C229.987 48.741 223.468 33.5249 219.522 47.0146C217.012 55.5955 220 68.8859 220 78M74 42C75.6711 54.1278 89.565 63.0234 82.5877 76.9888C75.859 90.4567 54.0367 89.3024 49 105C60.7055 102.674 68.8494 92.7577 80 89C79.776 105.392 77.9943 121.592 79.9448 138C80.6415 143.86 80.7947 152.428 86 156C86 137.082 83.7928 117.861 85.1147 99C85.9856 86.5745 90.213 75.6264 89.9895 63C89.8158 53.193 84.2805 43.6631 74 42M95.7375 44.5026C92.1831 46.2586 101.59 64.1248 101.864 68C102.525 77.348 97.2228 86.0202 95.4847 95C93.0311 107.676 94.5791 120.418 97.0033 133C97.5208 135.686 100.898 154.507 105.428 152.438C109.811 150.436 103.982 136.168 103.168 133C100.175 121.357 98.0382 106.947 100.431 95C102.642 83.96 108.814 76.9402 107.882 65C107.571 61.0237 102.749 41.0388 95.7375 44.5026M49 89C60.223 88.1648 78.9072 74.6971 76.479 62C75.6314 57.5675 65.5048 44.6461 59.8467 48.4095C55.5355 51.277 71.1253 61.1967 70.4312 65.9729C69.1299 74.9277 52.5557 79.4373 49 89M138.298 71.1497C133.417 74.1977 134.833 81.8475 140.074 83.479C146.988 85.6312 176.055 85.8601 181.476 81.1553C186.125 77.1199 181.758 71.2678 176.989 70.2976C169.009 68.6742 145.231 66.8195 138.298 71.1497z"/>
<path style="fill:#ffffff; stroke:none;" d="M210 89C223.754 107.354 238.363 105.868 253 89C239.8 86.0209 223.089 85.2604 210 89z"/>
<path style="fill:#ff0000; stroke:none;" d="M227.159 90.9083C220.475 93.469 225.925 101.448 231.896 99.0054C238.658 96.2395 232.785 88.7532 227.159 90.9083z"/>
<path style="fill:#ffffff; stroke:none;" d="M201 95C198.243 104.649 198.804 115.271 201 125C208.168 122.066 214.845 116.679 221 112C215.926 105.125 208.331 99.3376 201 95M256 98C250.261 102.384 244.294 106.455 238 110C241.597 116.532 250.028 123.412 257 126C257 117.607 260.609 105.397 256 98z"/>
<path style="fill:#ff0000; stroke:none;" d="M141 116C141.418 130.669 150.133 138.145 154.343 151C156.108 156.389 155 163.379 155 169C147.422 165.169 144.283 157.695 141.669 150C140.479 146.493 139.336 140.057 135.098 138.933C128.131 137.087 132.239 154.292 133.06 157C135.233 164.17 138.641 170.666 144.03 175.936C147.397 179.228 153.406 181.626 155.286 186.087C156.849 189.798 155.027 203.175 161 203.175C166.782 203.175 165.164 189.863 166.385 186.125C167.813 181.754 172.817 179.298 175.741 175.972C180.801 170.216 183.912 162.554 184.934 155C185.282 152.433 186.305 131.954 178.806 138.759C170.884 145.949 175.568 160.827 165 169C165 150.229 173.584 135.866 179.402 118.185C180.919 113.575 187.411 112.654 187.114 107.011C186.506 95.4973 152.74 102.085 145 101.744C140.822 101.56 135.097 99.6029 131.521 102.717C122.827 110.29 134.503 115.906 141 116M67 102C64.7994 104.432 44.6495 120.387 49.8634 123.556C53.6932 125.884 62.8701 114.923 66 113C65.9997 128.757 57.8902 138.456 55 153C71.2324 148.616 77.7333 113.899 67 102M207.043 104.886C200.406 106.328 202.029 116.091 208.855 114.405C214.582 112.991 213.192 103.551 207.043 104.886M248.218 108.306C242.573 110.895 247.331 118.679 252.702 116.268C258.093 113.848 252.985 106.121 248.218 108.306z"/>
<path style="fill:#ffffff; stroke:none;" d="M153 114C153 118.983 151.927 138.034 160.885 136.87C168.637 135.863 167 120.179 167 115L153 114M207 132L207 134C220.206 136.979 235.492 135 249 135C245.844 129.538 235.035 117.496 228 118.167C220.801 118.854 212.577 127.843 207 132z"/>
<path style="fill:#ff0000; stroke:none;" d="M224.525 124.161C218.938 127.981 226.559 135.155 231.573 131.043C236.55 126.962 228.813 121.23 224.525 124.161M207 229C203.735 225.729 200.081 220.195 195.842 218.251C190.096 215.616 190.37 223.989 192.099 227C198.748 238.579 213.737 248.654 227 250C227.364 254.176 230.414 283.175 235.081 277.546C240.726 270.739 235.673 259.227 240.15 252.384C244.102 246.344 258.052 244.235 263.937 238.776C265.687 237.152 278.812 218.913 270.02 220.13C265.832 220.709 261.453 228.45 258 231C257.98 221.396 253.74 208.29 256.413 199.09C257.707 194.637 263.153 193.613 265.576 189.854C270.492 182.226 270.929 166.098 267.026 158.003C259.175 141.723 231.437 147.017 217 147.951C209.919 148.409 201.502 149.694 198.298 157.031C194.706 165.254 195.99 183.416 201.078 190.854C203.471 194.352 208.57 195.289 210.283 199.185C213.956 207.544 209.558 220.874 207 229z"/>
<path style="fill:#ffffff; stroke:none;" d="M219 159.46C207.932 161.182 200.354 177.528 212.235 184.46C219.786 188.866 242.515 187.595 250.969 185.647C259.462 183.69 261.145 165.754 254.702 160.845C248.069 155.789 226.98 158.219 219 159.46z"/>
<path style="fill:#ff0000; stroke:none;" d="M80 161C79.9225 170.08 71.9624 172.617 71.1294 181C69.6748 195.639 77.6756 204.87 79 218C70.5208 217.758 63.5423 216.463 60 208C70.7931 205.929 69.3338 194.078 60 191L60 189C73.5204 183.869 64.1148 166.488 54 164C54.9953 173.113 37.6114 182.676 54 189L54 191C39.0128 196.539 54.085 215.634 63.0113 220.83C67.5603 223.478 73.8615 223.552 79 224L79 227C65.3063 228.702 61.279 243.214 59.8309 255C59.5609 257.197 57.1207 269.565 61.1964 269.565C64.8336 269.565 64.2381 260.298 64.6271 258C66.2401 248.468 67.5612 235.862 79 234C79.0078 247.053 76.6336 268.17 82 280C89.7872 271.654 85 245.16 85 234C95.3305 237.335 97.0671 249.591 98.2954 259C98.6517 261.73 98.5434 270.112 101.534 271.438C106.264 273.535 104.049 258.716 103.895 257C103.171 248.913 101.088 238.427 95.4217 232.27C92.2346 228.806 87.5806 228.018 85 224C91.6465 223.999 99.4676 224.433 104.713 219.539C111.632 213.084 124.524 194.285 108 192L108 189C124.429 186.719 112.727 165.949 103 164C104.322 172.175 86.8582 184.929 104 189C101.287 191.834 96.9463 193.756 96.3683 198.031C95.5924 203.771 101.367 205.635 101.882 210.3C102.684 217.569 89.5216 217.938 85 218C85.5546 212.684 89.1161 210.515 91.3528 205.973C96.1399 196.25 97.2222 174.953 85 171C86.1305 165.795 85.7389 162.15 80 161M219.015 167.534C214.295 168.642 210.869 174.471 217.101 176.479C223.691 178.602 243.469 179.255 249.691 176.155C255.305 173.359 249.513 168.624 245.989 167.724C238.543 165.823 226.499 165.776 219.015 167.534z"/>
<path style="fill:#ffffff; stroke:none;" d="M77 189L88 189C87.9693 174.962 77.0386 175.101 77 189M62 178C46.4377 178.133 59.946 187.683 62 178M113 181C103.027 171.696 98.6265 188.151 113 181z"/>
<path style="fill:#ff0000; stroke:none;" d="M173 205C164.312 205 155.667 205.404 147 205C147 202.224 147.111 183.429 140.585 189.514C129.413 199.929 135.567 236.547 146.227 245.298C159.751 256.4 177.624 248.326 181.822 233C183.53 226.761 183.998 220.434 184 214C184.002 207.232 184.899 197.07 180.83 191.217C172.697 179.518 172.953 201.585 173 205z"/>
<path style="fill:#ffffff; stroke:none;" d="M77 196C79.8966 207.96 86.9271 207.194 88 195C84.2037 195.002 80.6752 195 77 196M53.8185 198.108C50.3792 201.051 58.9419 202.808 61.1815 200.892C64.6208 197.949 56.0581 196.192 53.8185 198.108M103.427 197.852C98.265 200.47 106.229 204.038 109.546 202.293C114.147 199.873 106.479 196.303 103.427 197.852M220 203L246 203L246 197C238.605 197 221.055 193.282 220 203M219 220L248 220C247.456 217.632 247.135 215.426 247 213C238.403 213 220.254 208.794 219 220M174 217C167.933 216.208 152.632 213.123 148.153 218.834C143.153 225.209 152.76 236.779 159.003 237.718C171.453 239.591 173.192 226.199 174 217M249 230L236 230C233.337 230 230.661 229.931 228 230.059C224.519 230.228 214.097 231.251 218.164 237.302C225.9 248.813 249.624 244.231 249 230z"/>
</svg>